<svg width="191" height="159" viewBox="0 0 191 159" fill="none" xmlns="http://www.w3.org/2000/svg">
<path d="M186.333 148H159.667C158.173 148 157 146.808 157 145.292V129.042C157 127.525 158.173 126.333 159.667 126.333H160.2V124.708C160.2 123.192 161.373 122 162.867 122H186.333C187.827 122 189 123.192 189 124.708V145.292C189 146.808 187.827 148 186.333 148ZM159.667 127.417C158.813 127.417 158.067 128.175 158.067 129.042V145.292C158.067 146.158 158.813 146.917 159.667 146.917H186.333C187.187 146.917 187.933 146.158 187.933 145.292V124.708C187.933 123.842 187.187 123.083 186.333 123.083H162.867C162.013 123.083 161.267 123.842 161.267 124.708V144.208C161.267 144.533 161.053 144.75 160.733 144.75C160.413 144.75 160.2 144.533 160.2 144.208V127.417H159.667Z" fill="#4B286D"/>
<path d="M173.533 143.667H163.933C163.613 143.667 163.4 143.45 163.4 143.125V135.542C163.4 135.217 163.613 135 163.933 135H173.533C173.853 135 174.067 135.217 174.067 135.542V143.125C174.067 143.45 173.853 143.667 173.533 143.667ZM164.467 142.583H173V136.083H164.467V142.583Z" fill="#4B286D"/>
<path d="M185.267 136.083H176.733C176.413 136.083 176.2 135.867 176.2 135.542C176.2 135.217 176.413 135 176.733 135H185.267C185.587 135 185.8 135.217 185.8 135.542C185.8 135.867 185.587 136.083 185.267 136.083Z" fill="#4B286D"/>
<path d="M185.267 139.333H176.733C176.413 139.333 176.2 139.117 176.2 138.792C176.2 138.467 176.413 138.25 176.733 138.25H185.267C185.587 138.25 185.8 138.467 185.8 138.792C185.8 139.117 185.587 139.333 185.267 139.333Z" fill="#4B286D"/>
<path d="M185.267 143.667H176.733C176.413 143.667 176.2 143.45 176.2 143.125C176.2 142.8 176.413 142.583 176.733 142.583H185.267C185.587 142.583 185.8 142.8 185.8 143.125C185.8 143.45 185.587 143.667 185.267 143.667Z" fill="#4B286D"/>
<path d="M185.267 131.75H163.933C163.613 131.75 163.4 131.533 163.4 131.208C163.4 130.883 163.613 130.667 163.933 130.667H185.267C185.587 130.667 185.8 130.883 185.8 131.208C185.8 131.533 185.587 131.75 185.267 131.75Z" fill="#4B286D"/>
<path d="M185.267 127.417H163.933C163.613 127.417 163.4 127.2 163.4 126.875C163.4 126.55 163.613 126.333 163.933 126.333H185.267C185.587 126.333 185.8 126.55 185.8 126.875C185.8 127.2 185.587 127.417 185.267 127.417Z" fill="#4B286D"/>
<line x1="64.3166" y1="107.613" x2="97.3166" y2="134.613" stroke="#8A8A8A" stroke-dasharray="2 2"/>
<path d="M6.42866 92.4666V77.5333M48.8572 69.64L34.7144 61.96M48.8572 100.36L34.7144 108.04M25.2858 108.04L11.1429 100.36M53.5715 92.4666V77.5333M25.2858 61.96L11.1429 69.64M33.8574 55.56C36.0003 57.6933 36.0003 61.1067 33.8574 63.0267C31.7145 65.16 28.286 65.16 26.3574 63.0267C24.4288 60.8933 24.2145 57.48 26.3574 55.56C28.286 53.64 31.7145 53.64 33.8574 55.56ZM33.8574 106.76C36.0003 108.893 36.0003 112.307 33.8574 114.227C31.7145 116.147 28.286 116.36 26.3574 114.227C24.4288 112.093 24.2145 108.68 26.3574 106.76C28.5003 104.84 31.7145 104.84 33.8574 106.76ZM10.2859 68.36C12.4287 70.4933 12.4287 73.9067 10.2859 75.8267C8.143 77.7467 4.71443 77.96 2.78585 75.8267C0.642997 73.6933 0.642997 70.28 2.78585 68.36C4.71443 66.44 8.143 66.44 10.2859 68.36ZM57.4288 93.96C59.5717 96.0933 59.5717 99.5067 57.4288 101.427C55.286 103.347 51.8574 103.56 49.9288 101.427C48.0003 99.2933 47.786 95.88 49.9288 93.96C52.0717 92.04 55.286 92.04 57.4288 93.96ZM57.4288 68.36C59.5717 70.4933 59.5717 73.9067 57.4288 75.8267C55.286 77.7467 51.8574 77.96 49.9288 75.8267C48.0003 73.6933 47.786 70.28 49.9288 68.36C51.8574 66.44 55.286 66.44 57.4288 68.36ZM10.2859 93.96C12.4287 96.0933 12.4287 99.5067 10.2859 101.427C8.143 103.347 4.71443 103.56 2.78585 101.427C0.642997 99.2933 0.642997 95.88 2.78585 93.96C4.92871 92.04 8.143 92.04 10.2859 93.96ZM33.8574 74.76C36.0003 76.8933 36.0003 80.3067 33.8574 82.2267C31.7145 84.1467 28.286 84.36 26.3574 82.2267C24.4288 80.0933 24.2145 76.68 26.3574 74.76C28.5003 72.84 31.7145 72.84 33.8574 74.76ZM20.3572 96.7333V93.5333C20.3572 90.5467 22.7144 88.2 25.7144 88.2H34.2858C37.2858 88.2 39.6429 90.5467 39.6429 93.5333V96.7333H20.3572Z" stroke="#4B286D" stroke-width="2" stroke-linecap="round" stroke-linejoin="round"/>
<line x1="68.8387" y1="73.5267" x2="156.839" y2="43.5267" stroke="#54595F" stroke-dasharray="2 2"/>
<line x1="69.17" y1="97.5298" x2="152.17" y2="127.53" stroke="#54595F" stroke-dasharray="2 2"/>
<path d="M180.5 53H163.5C162.1 53 161 51.9 161 50.5V29.5C161 28.1 162.1 27 163.5 27H166.5C166.8 27 167 27.2 167 27.5C167 27.8 166.8 28 166.5 28H163.5C162.7 28 162 28.7 162 29.5V50.5C162 51.3 162.7 52 163.5 52H180.5C181.3 52 182 51.3 182 50.5V45.5C182 45.2 182.2 45 182.5 45C182.8 45 183 45.2 183 45.5V50.5C183 51.9 181.9 53 180.5 53ZM182.5 32C182.2 32 182 31.8 182 31.5V29.5C182 28.7 181.3 28 180.5 28H177.5C177.2 28 177 27.8 177 27.5C177 27.2 177.2 27 177.5 27H180.5C181.9 27 183 28.1 183 29.5V31.5C183 31.8 182.8 32 182.5 32Z" fill="#4B286D"/>
<path d="M173.9 47.6C173.8 47.6 173.6 47.5 173.5 47.5C173.4 47.4 173.3 47.2 173.4 47L174.3 42.6C174.3 42.5 174.4 42.4 174.4 42.3L185.9 30.9C187.1 29.7 189 29.8 190.1 31C191.2 32.2 191.2 34 190.1 35.1L178.6 46.6C178.5 46.7 178.4 46.7 178.3 46.7L173.9 47.6ZM175.2 43L174.5 46.5L178 45.8L186.4 37.4L183.6 34.6L175.2 43ZM184.3 33.9L187.1 36.7L189.4 34.4C190.1 33.6 190.1 32.4 189.4 31.6C188.6 30.8 187.4 30.8 186.6 31.5L184.3 33.9Z" fill="#4B286D"/>
<path d="M177.5 30H166.5C166.2 30 166 29.8 166 29.5V26.8C166 25.8 166.8 25 167.8 25H169.6C169.8 23.9 170.8 23 172 23C173.2 23 174.2 23.9 174.4 25H176.2C177.2 25 178 25.8 178 26.8V29.6C178 29.8 177.8 30 177.5 30ZM167 29H177V26.8C177 26.3 176.7 26 176.3 26H174C173.7 26 173.5 25.8 173.5 25.5C173.5 24.7 172.8 24 172 24C171.2 24 170.6 24.6 170.5 25.3C170.5 25.4 170.5 25.4 170.5 25.5C170.6 25.8 170.3 26 170.1 26H167.8C167.3 26 167 26.3 167 26.8V29Z" fill="#4B286D"/>
<path d="M178.4 46.4C178.1 46.4 177.9 46.2 177.9 46C177.8 45.3 177.5 44.6 176.9 44.1C176.4 43.5 175.7 43.2 174.9 43.1C174.6 43.1 174.4 42.8 174.5 42.5C174.5 42.2 174.8 42 175.1 42.1C176.1 42.2 177 42.7 177.7 43.4C178.4 44 178.8 45 179 45.9C179 46.1 178.8 46.4 178.4 46.4C178.5 46.4 178.5 46.4 178.4 46.4Z" fill="#4B286D"/>
<path d="M125.695 84.9528L71.8339 84.2913" stroke="#8A8A8A" stroke-dasharray="2 2"/>
<path d="M156.5 95H127.5C127.2 95 127 94.8 127 94.5C127 94.2 127.2 94 127.5 94H156.5C156.8 94 157 94.2 157 94.5C157 94.8 156.8 95 156.5 95Z" fill="#4B286D"/>
<path d="M133.5 95H129.5C129.2 95 129 94.8 129 94.5V86.5C129 86.2 129.2 86 129.5 86H133.5C133.8 86 134 86.2 134 86.5V94.5C134 94.8 133.8 95 133.5 95ZM130 94H133V87H130V94Z" fill="#4B286D"/>
<path d="M140.5 95H136.5C136.2 95 136 94.8 136 94.5V80.5C136 80.2 136.2 80 136.5 80H140.5C140.8 80 141 80.2 141 80.5V94.5C141 94.8 140.8 95 140.5 95ZM137 94H140V81H137V94Z" fill="#4B286D"/>
<path d="M147.5 95H143.5C143.2 95 143 94.8 143 94.5V83.5C143 83.2 143.2 83 143.5 83H147.5C147.8 83 148 83.2 148 83.5V94.5C148 94.8 147.8 95 147.5 95ZM144 94H147V84H144V94Z" fill="#4B286D"/>
<path d="M154.5 95H150.5C150.2 95 150 94.8 150 94.5V75.5C150 75.2 150.2 75 150.5 75H154.5C154.8 75 155 75.2 155 75.5V94.5C155 94.8 154.8 95 154.5 95ZM151 94H154V76H151V94Z" fill="#4B286D"/>
<path d="M131.5 81C130.1 81 129 79.9 129 78.5C129 77.1 130.1 76 131.5 76C132.9 76 134 77.1 134 78.5C134 79.9 132.9 81 131.5 81ZM131.5 77C130.7 77 130 77.7 130 78.5C130 79.3 130.7 80 131.5 80C132.3 80 133 79.3 133 78.5C133 77.7 132.3 77 131.5 77Z" fill="#4B286D"/>
<path d="M138.5 75C137.1 75 136 73.9 136 72.5C136 71.1 137.1 70 138.5 70C139.9 70 141 71.1 141 72.5C141 73.9 139.9 75 138.5 75ZM138.5 71C137.7 71 137 71.7 137 72.5C137 73.3 137.7 74 138.5 74C139.3 74 140 73.3 140 72.5C140 71.7 139.3 71 138.5 71Z" fill="#4B286D"/>
<path d="M145.5 78C144.1 78 143 76.9 143 75.5C143 74.1 144.1 73 145.5 73C146.9 73 148 74.1 148 75.5C148 76.9 146.9 78 145.5 78ZM145.5 74C144.7 74 144 74.7 144 75.5C144 76.3 144.7 77 145.5 77C146.3 77 147 76.3 147 75.5C147 74.7 146.3 74 145.5 74Z" fill="#4B286D"/>
<path d="M152.5 70C151.1 70 150 68.9 150 67.5C150 66.1 151.1 65 152.5 65C153.9 65 155 66.1 155 67.5C155 68.9 153.9 70 152.5 70ZM152.5 66C151.7 66 151 66.7 151 67.5C151 68.3 151.7 69 152.5 69C153.3 69 154 68.3 154 67.5C154 66.7 153.3 66 152.5 66Z" fill="#4B286D"/>
<path d="M133 77.7C132.9 77.7 132.7 77.6 132.6 77.5C132.4 77.3 132.4 77 132.7 76.8L136.7 73.4C136.9 73.2 137.2 73.2 137.4 73.5C137.6 73.7 137.6 74 137.3 74.2L133.3 77.6C133.2 77.7 133.1 77.7 133 77.7Z" fill="#4B286D"/>
<path d="M146.8 74.5C146.7 74.5 146.6 74.5 146.5 74.4C146.3 74.2 146.3 73.9 146.5 73.7L150.9 68.7C151.1 68.5 151.4 68.5 151.6 68.7C151.8 68.9 151.8 69.2 151.6 69.4L147.2 74.4C147.1 74.4 146.9 74.5 146.8 74.5Z" fill="#4B286D"/>
<path d="M143.7 75.2C143.6 75.2 143.6 75.2 143.5 75.2L140.2 73.8C139.9 73.7 139.8 73.4 139.9 73.1C140 72.8 140.3 72.7 140.6 72.8L143.9 74.2C144.2 74.3 144.3 74.6 144.2 74.9C144 75.1 143.9 75.2 143.7 75.2Z" fill="#4B286D"/>
<path d="M125.126 16C123.526 16 121.826 15.8 120.426 15.5L110.426 12.4C110.126 12.3 109.926 12 110.026 11.7C110.126 11.4 110.426 11.3 110.626 11.4L120.626 14.5C123.326 15.1 126.926 15.1 129.326 14.5L139.326 11.4C139.626 11.3 139.826 11.5 139.926 11.7C140.026 11.9 139.826 12.2 139.626 12.3L129.626 15.4C128.326 15.8 126.726 16 125.126 16Z" fill="#4B286D"/>
<path d="M138.526 26H111.526C110.526 26 110.026 25 110.026 24V5.5C110.026 4.5 110.526 4 111.526 4H138.526C139.526 4 140.026 4.5 140.026 5.5V24C140.026 25 139.526 26 138.526 26ZM111.526 5C111.126 5 111.026 5.1 111.026 5.5V24C111.026 24.4 111.226 25 111.526 25H138.526C138.826 25 139.026 24.4 139.026 24V5.5C139.026 5.1 138.926 5 138.526 5H111.526Z" fill="#4B286D"/>
<path d="M129.526 5H120.526C120.226 5 120.026 4.8 120.026 4.5V1.5C120.026 0.5 120.526 0 121.526 0H128.526C129.526 0 130.026 0.5 130.026 1.5V4.5C130.026 4.8 129.826 5 129.526 5ZM121.026 4H129.026V1.5C129.026 1.1 128.926 1 128.526 1H121.526C121.126 1 121.026 1.1 121.026 1.5V4Z" fill="#4B286D"/>
<path d="M125.026 13C123.926 13 123.026 12.1 123.026 11C123.026 9.9 123.926 9 125.026 9C126.126 9 127.026 9.9 127.026 11C127.026 12.1 126.126 13 125.026 13ZM125.026 10C124.426 10 124.026 10.4 124.026 11C124.026 11.6 124.426 12 125.026 12C125.626 12 126.026 11.6 126.026 11C126.026 10.4 125.626 10 125.026 10Z" fill="#4B286D"/>
<path d="M114.242 138.1C110.442 135.8 105.442 137.1 103.242 140.9C100.942 144.7 102.242 149.7 106.042 151.9C109.842 154.2 114.842 152.9 117.042 149.1C118.542 146.6 118.542 143.4 117.042 140.9M117.742 134.5C111.942 130.3 103.842 131.5 99.5424 137.3C95.2424 143.1 96.5424 151.3 102.342 155.5C108.142 159.8 116.342 158.5 120.542 152.7C123.942 148.1 123.942 141.9 120.542 137.3M120.142 135H122.642L125.142 133H122.142V130L120.142 132.5V135ZM120.142 135L110.142 145M112.242 142.9C113.442 144.1 113.442 146 112.242 147.1C111.042 148.2 109.142 148.3 108.042 147.1C106.942 145.9 106.842 144 108.042 142.9C109.242 141.8 111.042 141.7 112.242 142.9Z" stroke="#4B286D" stroke-linecap="round" stroke-linejoin="round"/>
<line x1="63.6918" y1="64.6062" x2="109.692" y2="28.6062" stroke="#8A8A8A" stroke-dasharray="2 2"/>
</svg>
