<?xml version="1.0" encoding="utf-8"?>
<!-- Generator: Adobe Illustrator 22.1.0, SVG Export Plug-In . SVG Version: 6.00 Build 0)  -->
<svg version="1.1" id="Layer_1" xmlns="http://www.w3.org/2000/svg" xmlns:xlink="http://www.w3.org/1999/xlink" x="0px" y="0px"
	 viewBox="0 0 300 50" style="enable-background:new 0 0 300 50;" xml:space="preserve">
<style type="text/css">
	.st0{fill:#4B286D;}
	.st1{fill:#66CC00;}
</style>
<g>
	<g>
		<g>
			<g>
				<path class="st0" d="M167.8,15.6c1,0,1.7,0.8,1.7,1.7c0,1-0.8,1.7-1.7,1.7c-1,0-1.8-0.8-1.8-1.7C166,16.3,166.8,15.6,167.8,15.6
					z M167.8,18.9c0.8,0,1.4-0.6,1.4-1.5c0-0.8-0.6-1.5-1.4-1.5c-0.8,0-1.5,0.6-1.5,1.5C166.3,18.2,166.9,18.9,167.8,18.9z
					 M167.1,16.3h0.8c0.5,0,0.7,0.2,0.7,0.6c0,0.4-0.3,0.5-0.5,0.6l0.6,0.9h-0.3l-0.6-0.9h-0.3v0.9h-0.3V16.3z M167.4,17.2h0.3
					c0.3,0,0.5,0,0.5-0.3c0-0.3-0.3-0.3-0.5-0.3h-0.5L167.4,17.2L167.4,17.2z"/>
			</g>
		</g>
		<polygon class="st0" points="100.5,18.9 100.5,15.6 88.8,15.6 88.8,32.4 100.5,32.4 100.5,29 93.5,29 93.5,25.3 99.3,25.3 
			99.3,22 93.5,22 93.5,18.9 		"/>
		<polygon class="st0" points="121.2,29.2 113.8,29.2 113.8,15.6 109,15.6 109,32.4 121.2,32.4 		"/>
		<g>
			<path class="st0" d="M159.8,22c-3.2-0.7-4.4-0.8-4.4-2.1s1.6-1.6,2.5-1.6c1.5,0,3.2,0.3,5,1.3l1.3-3.1c-1.8-1-4.2-1.4-6.5-1.4
				c-4.5,0-7.4,1.8-7.6,5.4c-0.1,3.2,2.5,4.4,4.9,4.9c2.3,0.5,4.7,0.9,4.7,2.3c0.1,1.3-1.1,1.8-3.2,1.8c-2,0-3.9-0.6-5.8-1.4
				l-1.1,3.4c2.2,0.9,4.4,1.4,6.7,1.4c3.2,0,5.5-0.5,7.2-2.1c1.2-1.1,1.6-2.5,1.6-3.7C165.2,24.4,163.6,22.9,159.8,22"/>
		</g>
		<polygon class="st0" points="82,18.9 82,15.6 67.2,15.6 67.2,18.9 72.2,18.9 72.2,32.4 77,32.4 77,18.9 		"/>
		<g>
			<path class="st0" d="M137.5,15.6v10.7c0,0.8,0,1.1-0.1,1.4c-0.1,1-1.2,1.6-2.7,1.6c-1.2,0-2-0.4-2.5-1c-0.2-0.3-0.3-0.9-0.3-1.8
				v-11h-5v11.6c0,1.6,0.2,2.3,1,3.2c1.2,1.5,3.6,2.3,6.8,2.3h0.1h0.1c4.3,0,6.5-1.7,7.2-3.2c0.3-0.8,0.3-1.1,0.3-2.7V15.6H137.5z"
				/>
			<path class="st0" d="M69.5,11l-27.9,5.6v1.9h0.1C60,14,69.4,11.3,69.6,11.3c0.1,0,0.1-0.1,0.1-0.2C69.7,11,69.6,10.9,69.5,11"/>
			<path class="st1" d="M46.8,10.4c-1.4,0.1-3.9,2.1-5.2,3.3c-5.6,4.8-9.6,9.1-12.6,13.7c-6.1,3.3-14.1,6.7-21.9,9.4l-0.2,0.1
				l-1.5,4.1l0.8-0.3c5-1.9,13.3-5.5,20.8-9.4c-0.5,1.2-0.6,2.2-0.6,3.1c0,0.7,0.1,1.4,0.4,1.9c0.5,1.2,1.4,2.1,2.7,2.6
				c1.9,0.8,4.6,0.8,7.6-0.1c7.7-2.3,16.8-9.4,18.8-10.9l0.1-0.1c0.1-0.1,0.1-0.1,0.1-0.2c0,0-0.1-0.1-0.2,0l-0.1,0.1
				c-2.1,1.3-12.5,7.4-19.2,9.2c-3.4,0.9-6,0.4-7-1c-0.3-0.5-0.5-1-0.5-1.7c0-1.4,0.6-3.1,1.9-5c1.1-0.6,2.2-1.3,3.1-1.9
				C40.5,23.5,48,16.4,48.3,12c0,0,0-0.1,0-0.1c0-0.4-0.2-0.8-0.5-1C47.6,10.5,47.2,10.4,46.8,10.4 M46,12.5
				c0.5-0.3,0.6-0.1,0.5,0.2c-0.2,0.5-1.2,3.5-8.2,9.3c-1.8,1.5-3.2,2.3-5.8,3.9C36.8,19.8,43.2,14.4,46,12.5"/>
		</g>
		<polygon class="st0" points="41.4,16.5 12.1,22.8 11,25.9 41.6,18.5 41.6,18.4 41.6,16.5 		"/>
	</g>
	<g>
		<g>
			<path class="st0" d="M181.1,15.7h1v16.8h-1V15.7z"/>
			<path class="st0" d="M185,20.4h0.9v2.6h0.1c0.6-1.8,2.5-2.8,4.3-2.8c4.3,0,4.3,3.4,4.3,4.9v7.5h-0.9v-7.7c0-1.2-0.1-3.9-3.4-3.9
				c-2.7,0-4.3,2.1-4.3,5v6.5H185L185,20.4L185,20.4z"/>
			<path class="st0" d="M201.7,21.2H199v8.5c0,1.9,0.9,2.1,2.6,2.1v0.8c-1.8,0.1-3.6-0.1-3.5-2.8v-8.5h-2.3v-0.8h2.3v-3.8h0.9v3.8
				h2.7V21.2z"/>
			<path class="st0" d="M203.7,26.6c-0.1,2.8,1.5,5.4,4.5,5.4c2.3,0,3.9-1.4,4.3-3.6h0.9c-0.5,2.8-2.3,4.4-5.2,4.4
				c-3.6,0-5.4-2.8-5.4-6.1c-0.1-3.3,1.7-6.5,5.4-6.5c3.8,0,5.5,3,5.3,6.5C213.4,26.6,203.7,26.6,203.7,26.6z M212.5,25.8
				c-0.1-2.5-1.7-4.9-4.5-4.9c-2.7,0-4.3,2.5-4.5,4.9H212.5z"/>
			<path class="st0" d="M216.4,23.1L216.4,23.1c0.5-1.6,2.5-2.8,4.7-2.8v0.9c-1-0.1-2.3,0.1-3.4,1.2c-0.9,0.9-1.3,1.7-1.4,3.5v6.6
				h-0.9V20.4h0.9V23.1z"/>
			<path class="st0" d="M222.1,20.4h0.9v2.6h0.1c0.6-1.8,2.5-2.8,4.3-2.8c4.3,0,4.3,3.4,4.3,4.9v7.5h-0.9v-7.7
				c0-1.2-0.1-3.9-3.4-3.9c-2.7,0-4.3,2.1-4.3,5v6.5h-0.9L222.1,20.4L222.1,20.4z"/>
			<path class="st0" d="M243.3,30.3c0,0.7,0,1.5,0.8,1.5c0.2,0,0.4,0,0.6-0.1v0.8c-0.3,0.1-0.5,0.1-0.7,0.1c-1.4,0-1.6-0.8-1.6-1.7
				v-0.6h-0.1c-0.6,1.4-2.2,2.7-4.5,2.7c-2.3,0-4.1-0.8-4.1-3.4c0-2.8,2.5-3.4,4.5-3.6c4-0.3,4.2-0.5,4.2-2.5c0-0.5-0.6-2.4-3.4-2.4
				c-2.2,0-3.6,1.2-3.8,3.2h-0.9c0.1-2.7,1.7-4,4.6-4c2.1,0,4.3,0.6,4.3,3.2L243.3,30.3L243.3,30.3z M242.4,25.6
				c-0.7,0.8-2.7,0.7-4.4,1c-2.1,0.3-3.3,1-3.3,2.8c0,1.5,1,2.7,3.2,2.7c4.1,0,4.5-3.5,4.5-4.1V25.6z"/>
			<path class="st0" d="M250.6,21.2H248v8.5c0,1.9,0.9,2.1,2.6,2.1v0.8c-1.8,0.1-3.6-0.1-3.5-2.8v-8.5h-2.3v-0.8h2.3v-3.8h0.9v3.8
				h2.7V21.2z"/>
			<path class="st0" d="M252.4,18.1v-2.5h0.9v2.5H252.4z M252.4,32.5V20.4h0.9v12.1L252.4,32.5L252.4,32.5z"/>
			<path class="st0" d="M261.2,20.1c3.6,0,5.6,2.9,5.6,6.3s-2,6.3-5.6,6.3s-5.6-2.9-5.6-6.3S257.7,20.1,261.2,20.1z M261.2,32
				c3,0,4.7-2.7,4.7-5.6s-1.6-5.6-4.7-5.6s-4.7,2.7-4.7,5.6C256.5,29.3,258.2,32,261.2,32z"/>
			<path class="st0" d="M268.8,20.4h0.9v2.6h0.1c0.6-1.8,2.5-2.8,4.3-2.8c4.3,0,4.3,3.4,4.3,4.9v7.5h-0.9v-7.7
				c0-1.2-0.1-3.9-3.4-3.9c-2.7,0-4.3,2.1-4.3,5v6.5h-0.9L268.8,20.4L268.8,20.4z"/>
			<path class="st0" d="M290.1,30.3c0,0.7,0,1.5,0.8,1.5c0.2,0,0.4,0,0.6-0.1v0.8c-0.3,0.1-0.5,0.1-0.7,0.1c-1.4,0-1.6-0.8-1.6-1.7
				v-0.6h-0.1c-0.6,1.4-2.2,2.7-4.5,2.7c-2.3,0-4.1-0.8-4.1-3.4c0-2.8,2.5-3.4,4.5-3.6c4-0.3,4.2-0.5,4.2-2.5c0-0.5-0.6-2.4-3.4-2.4
				c-2.2,0-3.6,1.2-3.8,3.2h-0.9c0.1-2.7,1.7-4,4.6-4c2.1,0,4.3,0.6,4.3,3.2L290.1,30.3L290.1,30.3z M289.2,25.6
				c-0.7,0.8-2.7,0.7-4.4,1c-2.1,0.3-3.3,1-3.3,2.8c0,1.5,1,2.7,3.2,2.7c4.1,0,4.5-3.5,4.5-4.1V25.6z"/>
			<path class="st0" d="M294,15.7v16.8h-0.9V15.7C293.1,15.7,294,15.7,294,15.7z"/>
		</g>
	</g>
</g>
</svg>
